<svg xmlns="http://www.w3.org/2000/svg" xmlns:xlink="http://www.w3.org/1999/xlink" width="712" height="461.134" viewBox="0 0 712 461.134"><defs><linearGradient id="a" x1="0.5" y1="1" x2="0.5" gradientUnits="objectBoundingBox"><stop offset="0" stop-color="gray" stop-opacity="0.251"/><stop offset="0.54" stop-color="gray" stop-opacity="0.122"/><stop offset="1" stop-color="gray" stop-opacity="0.102"/></linearGradient><linearGradient id="b" x1="-18.117" y1="168.355" x2="-18.117" y2="167.355" xlink:href="#a"/><linearGradient id="c" y2="0" xlink:href="#a"/></defs><g transform="translate(-0.102 -0.095)"><ellipse cx="330.02" cy="18.911" rx="330.02" ry="18.911" transform="translate(12.094 423.408)" fill="#6c63ff" opacity="0.1"/><g transform="translate(602.713 291.719)" opacity="0.2"><path d="M1015.973,791.245a10.811,10.811,0,0,1-1.055,1.629q-5.271-3.715-10.718-7.277c.073-.153.152-.311.238-.464a10.274,10.274,0,0,1,3.66-3.977,6.119,6.119,0,0,1,6.1-.525,6.217,6.217,0,0,1,3.014,5.356A10.271,10.271,0,0,1,1015.973,791.245Z" transform="translate(-1004.2 -639.797)" fill="#3f3d56"/><ellipse cx="8.546" cy="6.527" rx="8.546" ry="6.527" transform="translate(1.144 143.704) rotate(-62.09)" fill="#3f3d56"/><ellipse cx="8.546" cy="6.527" rx="8.546" ry="6.527" transform="translate(6.031 134.471) rotate(-62.09)" fill="#3f3d56"/><ellipse cx="8.546" cy="6.527" rx="8.546" ry="6.527" transform="translate(10.925 125.236) rotate(-62.09)" fill="#3f3d56"/><ellipse cx="8.546" cy="6.527" rx="8.546" ry="6.527" transform="translate(15.815 115.998) rotate(-62.09)" fill="#3f3d56"/><path d="M1042.087,586.968a31.624,31.624,0,0,1-.476-4.27l16.47,5.539-16.47-8.54a31.355,31.355,0,0,1,11.121-22.235l15.927,23.1-12.39-25.664a31.282,31.282,0,1,1,29.281,55.115,31.238,31.238,0,0,1,.488,6.71l-25.1-.2,24.718,4.069a31.312,31.312,0,0,1-18.2,23.6A31.282,31.282,0,1,1,1024,621.178a31.288,31.288,0,0,1,18.1-34.161Z" transform="translate(-1004.662 -550.143)" fill="#6c63ff"/><path d="M1082.4,674.377a31.111,31.111,0,0,1-14.964,13.957,31.282,31.282,0,1,1-43.452-23.01C1022.766,658.657,1084.042,671.278,1082.4,674.377Z" transform="translate(-1004.654 -594.314)" opacity="0.1"/></g><g transform="translate(566.407 3.727)" opacity="0.2"><path d="M978.555,484.921a19.294,19.294,0,0,1-1.372,2.831q-9.218-4.917-18.673-9.553c.085-.262.183-.537.287-.8a16.592,16.592,0,0,1,5.063-7.113c2.971-2.379,6.552-3.276,9.76-2.062s5.258,4.27,5.9,8a16.6,16.6,0,0,1-.964,8.7Z" transform="translate(-950.075 -229.995)" fill="#3f3d56"/><ellipse cx="13.841" cy="10.572" rx="13.841" ry="10.572" transform="matrix(0.356, -0.935, 0.935, 0.356, 9.826, 244.55)" fill="#3f3d56"/><ellipse cx="13.841" cy="10.572" rx="13.841" ry="10.572" transform="matrix(0.356, -0.935, 0.935, 0.356, 15.849, 228.743)" fill="#3f3d56"/><ellipse cx="13.841" cy="10.572" rx="13.841" ry="10.572" transform="matrix(0.356, -0.935, 0.935, 0.356, 21.862, 212.928)" fill="#3f3d56"/><ellipse cx="13.841" cy="10.572" rx="13.841" ry="10.572" transform="matrix(0.356, -0.935, 0.935, 0.356, 27.884, 197.127)" fill="#3f3d56"/><path d="M991.536,143.708a50.867,50.867,0,0,1-1.616-6.82l27.585,5.618-28.158-10.48a50.7,50.7,0,0,1,13.366-37.821l30.232,33.832-25.011-38.754A50.631,50.631,0,1,1,1065.94,172a50.885,50.885,0,0,1,2.111,10.681l-40.365,4.685,40.524,1.617a50.674,50.674,0,0,1-24.553,41.536A50.632,50.632,0,1,1,969.234,202.2a50.631,50.631,0,0,1,22.278-58.519Z" transform="translate(-944.683 -78.04)" fill="#6c63ff"/><path d="M1064.922,281.27a50.382,50.382,0,0,1-21.265,25.383,50.632,50.632,0,1,1-74.422-28.317C965.983,267.892,1066.947,275.963,1064.922,281.27Z" transform="translate(-944.683 -154.173)" opacity="0.1"/></g><g transform="translate(0.102 0.095)" opacity="0.2"><path d="M194.229,569.819a22.746,22.746,0,0,0,1.22,3.538q11.59-4.441,23.443-8.54c-.067-.323-.134-.659-.22-.988a19.771,19.771,0,0,0-4.923-9.15c-3.16-3.245-7.253-4.831-11.188-3.868s-6.832,4.27-8.144,8.54a19.819,19.819,0,0,0-.189,10.468Z" transform="translate(-85.476 -258.67)" fill="#3f3d56"/><ellipse cx="12.572" cy="16.458" rx="12.572" ry="16.458" transform="translate(100.111 275.601) rotate(-13.72)" fill="#3f3d56"/><ellipse cx="12.572" cy="16.458" rx="12.572" ry="16.458" transform="translate(95.338 256.068) rotate(-13.72)" fill="#3f3d56"/><ellipse cx="12.572" cy="16.458" rx="12.572" ry="16.458" transform="translate(90.571 236.527) rotate(-13.72)" fill="#3f3d56"/><ellipse cx="12.572" cy="16.458" rx="12.572" ry="16.458" transform="translate(85.797 216.981) rotate(-13.72)" fill="#3f3d56"/><path d="M131.317,157.2a59.694,59.694,0,0,0,2.916-7.808l-33.374,2.55,34.771-8.211a60.276,60.276,0,0,0-10.193-46.624L84.76,132.638,120,90.6a60.221,60.221,0,1,0-80.644,89.063,60.586,60.586,0,0,0-4.069,12.3l46.941,11.474-48.057-4.069A60.276,60.276,0,0,0,57,251.988a60.215,60.215,0,1,0,91.966-22.449A60.215,60.215,0,0,0,131.28,157.2Z" transform="translate(-16.342 -72.085)" fill="#6c63ff"/><path d="M47.99,310.907a59.958,59.958,0,0,0,21.351,33.118,60.215,60.215,0,1,0,91.966-22.449C166.724,309.712,46.4,304.374,47.99,310.907Z" transform="translate(-28.678 -164.121)" opacity="0.1"/></g><path d="M691.383,185.7H100.434a5.271,5.271,0,0,0-5.264,5.283V552.65A10.633,10.633,0,0,0,105.784,563.3H686.033a10.633,10.633,0,0,0,10.614-10.651V190.983A5.277,5.277,0,0,0,691.383,185.7Z" transform="translate(-46.981 -116.298)" fill="url(#a)"/><path d="M695.848,222.51V564.876A10.529,10.529,0,0,1,685.325,575.4H109.779A10.529,10.529,0,0,1,99.25,564.87V222.51Z" transform="translate(-48.573 -130.653)" fill="#fff"/><path d="M695.848,194.232v15.214H99.25V194.232a5.222,5.222,0,0,1,5.222-5.222H690.626A5.222,5.222,0,0,1,695.848,194.232Z" transform="translate(-48.573 -117.589)" fill="#ededf4"/><circle cx="2.44" cy="2.44" r="2.44" transform="translate(57.693 79.046)" fill="#fa5959" opacity="0.8"/><circle cx="2.44" cy="2.44" r="2.44" transform="translate(64.403 79.046)" fill="#fed253" opacity="0.8"/><circle cx="2.44" cy="2.44" r="2.44" transform="translate(71.113 79.046)" fill="#8ccf4d" opacity="0.8"/><rect width="2.44" height="3.66" transform="translate(383.698 60.258) rotate(90)" fill="url(#b)"/><rect width="57.342" height="6.1" transform="translate(187.883 121.864)" fill="#ededf4"/><rect width="322.09" height="6.1" transform="translate(187.883 139.554)" fill="#ededf4"/><rect width="322.09" height="6.1" transform="translate(187.883 157.245)" fill="#ededf4"/><rect width="322.09" height="6.1" transform="translate(187.883 174.935)" fill="#ededf4"/><rect width="322.09" height="6.1" transform="translate(187.883 192.626)" fill="#ededf4"/><rect width="198.866" height="153.725" transform="translate(249.391 226.372)" fill="#ededf4"/><path d="M600.914,506.305c-.256,0-.512.037-.775.043a3.406,3.406,0,0,0,.085-1.086,10.371,10.371,0,0,0-1.22-4.4,19.1,19.1,0,0,0-1.513-2.294c-1.659-2.294-3.2-4.636-5.02-6.8a10.939,10.939,0,0,1-1.934-2.849,13.916,13.916,0,0,0-.659-1.653,3.556,3.556,0,0,0-3.325-1.617,5.277,5.277,0,0,0-3.367,1.781c-.512.549-.933,1.4-.506,2.019s1.354.7,1.409,1.385c0,.366,0,.964-.372,1.08a6.632,6.632,0,0,0-1.867.817,2.2,2.2,0,0,0-.982,1.708c1.055.159,1.94-.726,2.9-1.22a5.35,5.35,0,0,1,3.831-.14,3.586,3.586,0,0,1,1.318.665,4.641,4.641,0,0,1,.854,1.147,12.241,12.241,0,0,1,2.111,5.722l.537,3.428a22.272,22.272,0,0,0-2.367.317,14.868,14.868,0,0,1-6.3-.427c-2.135-.61-4.27-1.72-6.472-1.22-1.031.226-1.97.8-3.014.964a8.253,8.253,0,0,1-2.44-.128l-1.678-.268c-.055-.14-.1-.287-.14-.433a12.65,12.65,0,0,1-.476-3.764,6.71,6.71,0,0,0,5.734-9.51,5.69,5.69,0,0,0,2.166-2.153L577,487.34l.4-.61a.72.72,0,0,1-.116-1.141,2.3,2.3,0,0,0-1.153-.256c.128-.238-.079-.531-.329-.61a2.87,2.87,0,0,0-.793-.049,3.879,3.879,0,0,1-1.135-.262c-2.6-.9-5.429-1.684-8.083-.933a10.108,10.108,0,0,0-3.227,1.7,4.215,4.215,0,0,0-1.72,5.533,14.314,14.314,0,0,1,.86,3.1,9.856,9.856,0,0,1-.336,2.946,12.006,12.006,0,0,0,1.775.4,10.065,10.065,0,0,1-1.763,3.611,14.35,14.35,0,0,1-1.22,1.348h-.073a29.644,29.644,0,0,1-3.66.451c-1.293,0-2.562-.488-3.849-.4a10.438,10.438,0,0,0-2.239.506,34.3,34.3,0,0,1-10.315,1.379l-.421.043.39-2.489a12.244,12.244,0,0,1,2.111-5.722,4.641,4.641,0,0,1,.854-1.147,3.612,3.612,0,0,1,1.324-.665,5.332,5.332,0,0,1,3.825.14c.958.47,1.83,1.354,2.9,1.22a2.22,2.22,0,0,0-.988-1.708,6.63,6.63,0,0,0-1.867-.818c-.354-.116-.4-.714-.372-1.08.055-.683,1.025-.83,1.409-1.391s0-1.464-.506-2.019a5.283,5.283,0,0,0-3.367-1.775A3.544,3.544,0,0,0,542,488.261a12.982,12.982,0,0,0-.665,1.653,10.941,10.941,0,0,1-1.934,2.849c-1.83,2.165-3.361,4.508-5.02,6.8a20.326,20.326,0,0,0-1.513,2.288,10.516,10.516,0,0,0-1.22,4.4,3.44,3.44,0,0,0,.085,1.092.705.705,0,0,0-.067.275,1.269,1.269,0,0,0,.476.854,8.343,8.343,0,0,0,3.172,2.312,19.486,19.486,0,0,0,2.373.409c1.928.348,3.7,1.464,5.661,1.458,1.348,0,2.678-.537,4.008-.348,1.83.25,3.148,1.739,4.27,3.184a10.98,10.98,0,0,1,2.1,3.849c.433,1.7.165,3.617,1.074,5.118a3.482,3.482,0,0,1,.525,1.013,3.393,3.393,0,0,1-.372,1.659c-.769,2.361.915,4.88.738,7.32-.085,1.189-.61,2.312-.665,3.5-.091,1.531.531,3.245-.323,4.52.519-.268,1.043-.506,1.58-.72-2.562,7.509-4.88,15.25-4.7,23.144.134,5.118,1.22,10.755-1.72,14.958a5.9,5.9,0,0,0-.982,1.677,5.7,5.7,0,0,0,.153,2.538c.543,3.66-1.434,7.265-1.568,10.98a22.135,22.135,0,0,0,.22,3.422l.72,6.186a4.491,4.491,0,0,0-1.964.976,2.406,2.406,0,0,0-1.068,2.526,2.522,2.522,0,0,0,1.9,1.275,4.77,4.77,0,0,1,2.208.836,8.476,8.476,0,0,0,.665.659,2.44,2.44,0,0,0,1.476.275c.933-.037,1.83-.116,2.782-.244a1.1,1.1,0,0,0,.555-.177,1.221,1.221,0,0,0,.311-.915,12.127,12.127,0,0,0-.116-2.782c-.037-.177-.085-.348-.134-.525a10.831,10.831,0,0,0,.677-2.44c.189-1.22.22-2.495.3-3.745.183-3.184.61-6.344,1.1-9.5l.61-4.063c.189-1.336.384-2.672.61-4.008a126.041,126.041,0,0,1,5.258-21.29c.519-1.482,1.4-3.221,2.971-3.264l.933,1.83a64.487,64.487,0,0,1,2.891,7.247c1.22,3.166.805,6.863,2.44,9.84a13.5,13.5,0,0,1,.811,1.482,8.542,8.542,0,0,1,.5,2.483l1.08,10.98c.488,4.935,1.013,10,3.227,14.439a5.572,5.572,0,0,0,.488.817,14.189,14.189,0,0,0-.031,2.221.872.872,0,0,0,.866,1.092c.921.122,1.83.2,2.776.238a2.44,2.44,0,0,0,1.476-.274,6.846,6.846,0,0,0,.671-.659,4.745,4.745,0,0,1,2.2-.836,2.492,2.492,0,0,0,1.9-1.275,2.4,2.4,0,0,0-1.068-2.526,4.269,4.269,0,0,0-2.172-1.006,3.608,3.608,0,0,1-.988-.079,4.885,4.885,0,0,0,.073-1.22,6.1,6.1,0,0,1-.061-1.452,8.623,8.623,0,0,1,.5-1.427c.7-2.16-.793-4.356-1.318-6.564-.7-2.94.342-6.021.152-9.041-.293-4.74-3.6-9.187-2.721-13.854.7-3.733.1-7.57-.561-11.31l-2.44-13.915a15.424,15.424,0,0,0-.884-3.3,7.761,7.761,0,0,0,1.33-.354,9.521,9.521,0,0,0,.323-4.728c-.183-1.6-.61-3.16-.823-4.746a31.28,31.28,0,0,1-.317-3.849,15.514,15.514,0,0,1,.268-3.794,18.255,18.255,0,0,1,1.141-3.19,56.646,56.646,0,0,1,4.27-8.54c2.507-.2,4.935-.409,7.436-.61a10.341,10.341,0,0,0,1.781-.238,22.519,22.519,0,0,1,2.275-.653,3.052,3.052,0,0,0,.842-.165c.549-.25.885-.952,1.488-.976a2.591,2.591,0,0,0,.683,0c.268-.085.4-.378.61-.61.378-.421.994-.506,1.488-.781A2.159,2.159,0,0,0,600.914,506.305Z" transform="translate(-217.197 -232.309)" fill="url(#c)"/><circle cx="6.71" cy="6.71" r="6.71" transform="translate(345.273 253.902)" fill="#a1616a"/><path d="M579.018,508.314a16.716,16.716,0,0,1-2.288,2.312,18.172,18.172,0,0,0,13.115,2.159c-.165-.457-.763-.525-1.183-.756a2.556,2.556,0,0,1-1.037-1.635,12.776,12.776,0,0,1-.39-4.947,3.051,3.051,0,0,0,0-1.22,2.617,2.617,0,0,0-1.263-1.391,12.451,12.451,0,0,0-3.05-1.372c-1.11-.329-1.745-.482-1.787.811A10.279,10.279,0,0,1,579.018,508.314Z" transform="translate(-234.781 -239.35)" fill="#a1616a"/><path d="M624.056,507.445l-.683-4.331a16.1,16.1,0,0,0-.543-2.574,16.608,16.608,0,0,0-1.562-3.123,4.61,4.61,0,0,0-.854-1.141,3.585,3.585,0,0,0-1.318-.665,5.313,5.313,0,0,0-3.819.146c-.958.464-1.83,1.342-2.9,1.19a2.184,2.184,0,0,1,.988-1.7,6.448,6.448,0,0,1,1.83-.817c.348-.11.4-.708.372-1.074-.055-.677-1.025-.824-1.409-1.379s0-1.458.5-2.013a5.252,5.252,0,0,1,3.361-1.763,3.526,3.526,0,0,1,3.318,1.6,12.9,12.9,0,0,1,.665,1.647,10.982,10.982,0,0,0,1.928,2.837c1.83,2.153,3.361,4.484,5.014,6.765a21.121,21.121,0,0,1,1.513,2.281,10.318,10.318,0,0,1,1.22,4.38,2.726,2.726,0,0,1-.2,1.385,2.147,2.147,0,0,1-1.83,1.049,6.485,6.485,0,0,1-2.19-.439l-2.66-.9a1.732,1.732,0,0,1-.854-.47A.671.671,0,0,1,624.056,507.445Z" transform="translate(-248.684 -234.26)" fill="#a1616a"/><path d="M539.485,509.015l.677-4.331a16.794,16.794,0,0,1,.549-2.574,16.236,16.236,0,0,1,1.562-3.123,4.311,4.311,0,0,1,.848-1.135,3.452,3.452,0,0,1,1.318-.665,5.331,5.331,0,0,1,3.825.14c.958.464,1.83,1.342,2.9,1.19a2.2,2.2,0,0,0-.988-1.7,6.523,6.523,0,0,0-1.83-.817c-.348-.11-.4-.708-.372-1.074.055-.677,1.019-.823,1.409-1.379s0-1.458-.506-2.007a5.246,5.246,0,0,0-3.361-1.769,3.532,3.532,0,0,0-3.319,1.6,12.9,12.9,0,0,0-.659,1.647,11.11,11.11,0,0,1-1.928,2.837c-1.83,2.153-3.361,4.484-5.02,6.765a20.754,20.754,0,0,0-1.507,2.281,10.415,10.415,0,0,0-1.22,4.38,2.763,2.763,0,0,0,.207,1.391,2.153,2.153,0,0,0,1.86,1.043,6.307,6.307,0,0,0,2.184-.439l2.666-.872a1.69,1.69,0,0,0,.848-.47A.671.671,0,0,0,539.485,509.015Z" transform="translate(-217.276 -234.873)" fill="#a1616a"/><path d="M617.911,681.866a2.393,2.393,0,0,1,1.068,2.513,2.527,2.527,0,0,1-1.9,1.269,4.808,4.808,0,0,0-2.2.83,6.7,6.7,0,0,1-.665.628,2.4,2.4,0,0,1-1.476.274c-.927-.036-1.83-.116-2.776-.238a1.1,1.1,0,0,1-.555-.177,1.177,1.177,0,0,1-.3-.909,11.666,11.666,0,0,1,.11-2.769,3.965,3.965,0,0,1,1.336-2.361c.708-.549,2.855-2.178,3.66-1.135.214.281.128.665.427.9s.769.1,1.11.146A4.271,4.271,0,0,1,617.911,681.866Z" transform="translate(-247.389 -308.852)" fill="#3f3d56"/><path d="M555.255,682.4a2.393,2.393,0,0,0-1.067,2.513,2.49,2.49,0,0,0,1.9,1.269,4.783,4.783,0,0,1,2.2.83,6.845,6.845,0,0,0,.671.659,2.44,2.44,0,0,0,1.47.274c.927-.037,1.83-.116,2.776-.244a1.088,1.088,0,0,0,.555-.177,1.178,1.178,0,0,0,.311-.909,11.95,11.95,0,0,0-.116-2.763,3.935,3.935,0,0,0-1.336-2.367c-.7-.549-2.849-2.178-3.66-1.135-.214.281-.128.671-.433.9s-.763.1-1.11.146A4.307,4.307,0,0,0,555.255,682.4Z" transform="translate(-225.952 -309.07)" fill="#3f3d56"/><path d="M567.036,576.47c-2.751,7.93-5.423,16.135-5.216,24.547.134,5.094,1.22,10.706-1.714,14.884a5.818,5.818,0,0,0-.982,1.671,5.74,5.74,0,0,0,.146,2.526c.549,3.66-1.421,7.235-1.562,10.931a21.951,21.951,0,0,0,.22,3.4l.763,6.515c.256,2.233,3.135,3.148,5.356,3.459a8.3,8.3,0,0,0,1.885-4.386c.189-1.22.22-2.483.293-3.721.189-3.172.647-6.32,1.1-9.461l.61-4.044c.2-1.33.384-2.66.61-3.99a125.458,125.458,0,0,1,5.264-21.125c.519-1.482,1.4-3.209,2.965-3.251l.933,1.793a63.448,63.448,0,0,1,2.885,7.211c1.22,3.154.8,6.826,2.44,9.8a12.343,12.343,0,0,1,.805,1.47,8.48,8.48,0,0,1,.5,2.44l1.08,10.907c.488,4.911,1.007,9.956,3.221,14.366a3.334,3.334,0,0,0,1.019,1.342,2.764,2.764,0,0,0,3.05-.335,5.2,5.2,0,0,0,2.111-4.5,6.748,6.748,0,0,1-.061-1.446,9.615,9.615,0,0,1,.5-1.421c.708-2.147-.787-4.331-1.318-6.527-.7-2.928.342-5.99.159-9-.293-4.722-3.593-9.15-2.721-13.793.7-3.715.1-7.534-.555-11.255L588.35,581.63c-.39-2.184-.976-4.648-2.922-5.716a7.26,7.26,0,0,0-3.556-.61C576.827,575.3,572.008,576.006,567.036,576.47Z" transform="translate(-227.363 -268.227)" fill="#000e3a"/><path d="M600.988,519.226a8.723,8.723,0,0,1-5.124-1.061,10.278,10.278,0,0,0-1.885-.988,8.561,8.561,0,0,0-3.843.14,15.009,15.009,0,0,1-6.289-.427c-2.135-.61-4.27-1.714-6.466-1.22-1.031.226-1.964.793-3.007.958a8,8,0,0,1-2.44-.128l-6.954-1.086a19.023,19.023,0,0,0-4.77-.342,30.9,30.9,0,0,1-3.66.458c-1.287,0-2.556-.488-3.843-.4a10.47,10.47,0,0,0-2.233.506,34.362,34.362,0,0,1-10.291,1.372,15.453,15.453,0,0,0-7.741,2.684,1.22,1.22,0,0,0-.61.848,1.25,1.25,0,0,0,.482.842,8.262,8.262,0,0,0,3.166,2.306,19.175,19.175,0,0,0,2.367.4c1.922.354,3.7,1.458,5.649,1.458,1.348,0,2.672-.537,4-.348,1.83.25,3.142,1.726,4.27,3.166a11.089,11.089,0,0,1,2.1,3.831c.427,1.7.159,3.6,1.068,5.094a3.53,3.53,0,0,1,.525,1.007,3.355,3.355,0,0,1-.372,1.653c-.769,2.349.915,4.831.738,7.32-.085,1.177-.61,2.3-.665,3.477-.085,1.531.531,3.233-.323,4.5a21.869,21.869,0,0,1,10.645-2.324,13.365,13.365,0,0,1,1.83.171,25.616,25.616,0,0,1,3.465.964c2.55.811,5.356,1.391,7.869.464a9.36,9.36,0,0,0,.317-4.7c-.189-1.586-.579-3.148-.817-4.728a31.01,31.01,0,0,1-.317-3.831,15.368,15.368,0,0,1,.268-3.776,17.885,17.885,0,0,1,1.141-3.172,55.876,55.876,0,0,1,4.27-8.54c2.5-.2,4.923-.415,7.424-.61a11.509,11.509,0,0,0,1.775-.238,22.86,22.86,0,0,1,2.269-.647,3,3,0,0,0,.842-.171c.549-.25.891-.945,1.488-.964a2.862,2.862,0,0,0,.683,0c.268-.079.4-.378.61-.61.378-.421.994-.506,1.489-.775A2.147,2.147,0,0,0,600.988,519.226Z" transform="translate(-217.271 -244.736)" fill="#4c5980"/><path d="M588.782,495.717a1.22,1.22,0,0,0,1.385.085,1.72,1.72,0,0,0,.512-.939,21.613,21.613,0,0,0,.531-2.318,2.544,2.544,0,0,1,.3-.97c.445-.683,1.409-.72,2.159-1.031a5.611,5.611,0,0,0,2.214-2.172l-.421-.085.4-.61a.707.707,0,0,1-.11-1.128,2.25,2.25,0,0,0-1.159-.262c.128-.232-.079-.525-.33-.61a2.6,2.6,0,0,0-.787-.043,3.891,3.891,0,0,1-1.135-.268c-2.6-.891-5.417-1.678-8.064-.927a10.028,10.028,0,0,0-3.227,1.69,4.191,4.191,0,0,0-1.714,5.49,14.2,14.2,0,0,1,.854,3.081,9.808,9.808,0,0,1-.329,2.94,9.592,9.592,0,0,0,2.227.433,3.2,3.2,0,0,0,2.135-.61,12.13,12.13,0,0,0,1.452-1.995,2.068,2.068,0,0,1,1.763-.927C588.117,494.644,588.239,495.333,588.782,495.717Z" transform="translate(-235.633 -232.683)" fill="#3f3d56"/><path d="M483.065,692h-7.143a.933.933,0,0,0,0,1.83h1.427v12.121H452.906a.678.678,0,0,0-.543-.329h-7.137a.933.933,0,0,0,0,1.83h1.427V719.9h-23.6a.757.757,0,0,0-.671-.659H415.25a.927.927,0,0,0,0,1.83h.714v12.81H391.971a.61.61,0,0,0-.293-.079h-7.137a.933.933,0,0,0,0,1.83h.714v12.2H361.568a.683.683,0,0,0-.61-.415h-7.137a.933.933,0,0,0,0,1.83h.714v13.512H515.9V692Z" transform="translate(-147.558 -313.746)" fill="#4c5980"/><path d="M174.972,295.749a16.9,16.9,0,0,0-2.385-2.55,2.05,2.05,0,0,1,.226-3.264c.293-.189.58-.39.866-.61,3.331-2.532,5.014-5.929,3.752-7.595s-4.99-.958-8.321,1.574a12.81,12.81,0,0,0-1.1.921,2.044,2.044,0,0,1-3.2-.61A17.247,17.247,0,0,0,163.168,281c-2.965-3.9-6.942-5.875-8.888-4.4s-1.129,5.844,1.83,9.76a16.823,16.823,0,0,0,1.922,2.135,2.062,2.062,0,0,1-.451,3.288h0c-3.66,2.092-5.728,5.246-4.691,7.058s4.831,1.586,8.461-.5a15.927,15.927,0,0,0,1.623-1.08,2.062,2.062,0,0,1,3.111.756,16.019,16.019,0,0,0,1.83,3.05c2.959,3.9,6.942,5.875,8.888,4.4S177.93,299.659,174.972,295.749Z" transform="translate(-69.387 -151.559)" fill="#6c63ff" opacity="0.1"/><path d="M891.208,464.616a16.6,16.6,0,0,0,1.751-3.02,2.038,2.038,0,0,1,3.178-.732c.268.22.549.433.836.647,3.392,2.44,7.137,3.05,8.357,1.372s-.537-5.051-3.928-7.5q-.61-.433-1.22-.787a2.044,2.044,0,0,1-.335-3.239,16.572,16.572,0,0,0,2.013-2.33c2.873-3.971,3.593-8.351,1.617-9.76s-5.917.61-8.791,4.606a17.218,17.218,0,0,0-1.482,2.44,2.062,2.062,0,0,1-3.276.531h0c-3.05-2.861-6.71-3.947-8.119-2.44s-.1,5.081,2.953,7.93a14.71,14.71,0,0,0,1.507,1.22,2.062,2.062,0,0,1,.177,3.2,16.379,16.379,0,0,0-2.4,2.678c-2.873,3.971-3.593,8.351-1.61,9.76S888.335,468.593,891.208,464.616Z" transform="translate(-353.535 -215.008)" fill="#6c63ff" opacity="0.1"/><ellipse cx="20.619" cy="3.965" rx="20.619" ry="3.965" transform="translate(520.178 447.601)" fill="#a2dfff"/><ellipse cx="2.403" cy="3.142" rx="2.403" ry="3.142" transform="translate(538.051 446.741)" fill="#63caff"/><ellipse cx="2.403" cy="3.142" rx="2.403" ry="3.142" transform="translate(538.051 442.898)" fill="#63caff"/><ellipse cx="2.403" cy="3.142" rx="2.403" ry="3.142" transform="translate(538.051 439.061)" fill="#63caff"/><ellipse cx="2.403" cy="3.142" rx="2.403" ry="3.142" transform="translate(538.051 435.218)" fill="#63caff"/><ellipse cx="2.403" cy="3.142" rx="2.403" ry="3.142" transform="translate(538.051 431.375)" fill="#63caff"/><ellipse cx="2.403" cy="3.142" rx="2.403" ry="3.142" transform="translate(538.051 427.538)" fill="#63caff"/><ellipse cx="2.403" cy="3.142" rx="2.403" ry="3.142" transform="translate(538.051 423.694)" fill="#3f3d56"/><path d="M903.727,716.677a12.149,12.149,0,0,0,.891-1.318l-6.3-1.037,6.82.055a11.493,11.493,0,0,0,.22-9.114l-9.15,4.746,8.443-6.2a11.5,11.5,0,1,0-19,12.871,11.764,11.764,0,0,0-1.311,2.1l8.193,4.27-8.735-2.928a11.523,11.523,0,0,0,1.83,10.8,11.5,11.5,0,1,0,18.081,0,11.511,11.511,0,0,0,0-14.219Z" transform="translate(-354.287 -316.126)" fill="#63caff"/><path d="M883.188,740.092a11.487,11.487,0,0,0,2.44,7.113,11.5,11.5,0,1,0,18.081,0C905.265,745.247,883.188,738.805,883.188,740.092Z" transform="translate(-354.287 -332.435)" opacity="0.1"/><ellipse cx="9.333" cy="1.793" rx="9.333" ry="1.793" transform="translate(155.692 450.718)" fill="#a2dfff"/><ellipse cx="1.086" cy="1.421" rx="1.086" ry="1.421" transform="translate(163.787 450.328)" fill="#63caff"/><ellipse cx="1.086" cy="1.421" rx="1.086" ry="1.421" transform="translate(163.787 448.589)" fill="#63caff"/><ellipse cx="1.086" cy="1.421" rx="1.086" ry="1.421" transform="translate(163.787 446.851)" fill="#63caff"/><ellipse cx="1.086" cy="1.421" rx="1.086" ry="1.421" transform="translate(163.787 445.112)" fill="#63caff"/><ellipse cx="1.086" cy="1.421" rx="1.086" ry="1.421" transform="translate(163.787 443.374)" fill="#63caff"/><ellipse cx="1.086" cy="1.421" rx="1.086" ry="1.421" transform="translate(163.787 441.635)" fill="#63caff"/><ellipse cx="1.086" cy="1.421" rx="1.086" ry="1.421" transform="translate(163.787 439.897)" fill="#3f3d56"/><path d="M287.153,770.473a4.95,4.95,0,0,0,.409-.61l-2.855-.47h3.087a5.209,5.209,0,0,0,.476-2.178,5.143,5.143,0,0,0-.378-1.946l-4.142,2.147,3.819-2.806a14.6,14.6,0,0,0-9.205,6.771l3.7,1.928-3.953-1.33a65.037,65.037,0,0,1,1.4,11.932,10.551,10.551,0,0,0,7.627-13.487Z" transform="translate(-118.217 -341.057)" fill="#63caff"/><path d="M277.868,781.091a20.6,20.6,0,0,1,1.67,10.273,5.21,5.21,0,0,0,7.626-7.052C287.866,783.446,277.868,780.505,277.868,781.091Z" transform="translate(-118.229 -348.46)" opacity="0.1"/></g></svg>