<svg xmlns="http://www.w3.org/2000/svg" width="670" height="453.417" viewBox="0 0 670 453.417">
  <g id="Group_9" data-name="Group 9" transform="translate(0 0.031)">
    <circle id="Ellipse_2" data-name="Ellipse 2" cx="93.454" cy="93.454" r="93.454" transform="translate(0 260.001)" fill="#f2f2f2"/>
    <!-- circle -->
    <path id="Path_4" data-name="Path 4" d="M312.892,507.9a197.458,197.458,0,1,1,139.624-57.834A197.458,197.458,0,0,1,312.892,507.9Zm0-393.408c-108.047,0-195.951,87.9-195.951,195.951S204.845,506.4,312.892,506.4s195.95-87.9,195.95-195.951-87.9-195.951-195.95-195.951Z" transform="translate(-106.391 -112.998)" fill="#63caff"/>
    <path id="Path_5" data-name="Path 5" d="M359.8,299.25l-.022.011-97.321,54.191L155.885,300.168l-1.836-.918,5.531-110.617,96.237-68.583,1.062.664,99.6,62.388Z" transform="translate(-50.422 -39.304)" fill="#63caff"/>
    <path id="Path_6" data-name="Path 6" d="M360.669,354.7l-97.321,54.191L156.779,355.606l94.4-66.182Z" transform="translate(-51.315 -94.741)" opacity="0.3"/>
    <path id="Path_7" data-name="Path 7" d="M406.623,299.573,297.112,234.309l6.593-113.272,99.6,62.388Z" transform="translate(-97.248 -39.627)" opacity="0.1"/>
    <path id="Path_8" data-name="Path 8" d="M159.9,238.952l-.541-.766L256.672,169.5l102.8,64.45-.5.794L256.7,170.625Z" transform="translate(-52.16 -55.489)" fill="#f2f2f2"/>
    <path id="Path_9" data-name="Path 9" d="M157.105,296.25l-.526-.775L253.4,229.743l.254.144,104.994,59.506-.463.815L253.441,230.846Z" transform="translate(-51.25 -75.207)" fill="#f2f2f2"/>
    <path id="Path_10" data-name="Path 10" d="M212.036,329.761l-.494-.8L309.118,268.5V152.594h.937V269.025Z" transform="translate(-69.24 -49.956)" fill="#f2f2f2"/>
    <path id="Path_11" data-name="Path 11" d="M268.967,359.475l-.5-.794,93.954-58.93V184.879h.937V300.27Z" transform="translate(-87.872 -60.523)" fill="#f2f2f2"/>
    <path id="Path_12" data-name="Path 12" d="M354.445,330.979,245.176,270.268l.015-.292,5.752-113.695.936.048-5.737,113.4L354.9,330.16Z" transform="translate(-80.248 -51.162)" fill="#f2f2f2"/>
    <path id="Path_13" data-name="Path 13" d="M303.937,361.412,195.9,304.794l.017-.3,6.369-113.751.936.052-6.352,113.45,107.507,56.338Z" transform="translate(-64.118 -62.442)" fill="#f2f2f2"/>
    <circle id="Ellipse_3" data-name="Ellipse 3" cx="37.683" cy="37.683" r="37.683" transform="translate(290.158 5.266)" fill="#63caff"/>
    <rect id="Rectangle_11" data-name="Rectangle 11" width="648.144" height="1.507" transform="translate(21.856 445.4)" fill="#2f2e41"/>
    <path id="Path_14" data-name="Path 14" d="M986.137,472.354l8.614,23.593s-8.988,26.964,0,27.713,10.109-25.84,10.109-25.84l-4.868-28.462Z" transform="translate(-391.387 -229.648)" fill="#ffb9b9"/>
    <path id="Path_15" data-name="Path 15" d="M988.617,359.128l6.366,6.366v30.334s3.745,5.617,3,7.115-1.5,1.5-.749,2.621,1.5,1.872.749,2.621a2.809,2.809,0,0,0,0,3.371c.749.749,2.247,1.872,1.124,3s-2.621.375-1.124,4.494,4.12,5.243,3.37,6.741-.749,5.243-.749,5.243l-16.1,2.247-3.37-42.318Z" transform="translate(-389.747 -193.569)" fill="#d0cde1"/>
    <path id="Path_16" data-name="Path 16" d="M900.078,352.464l-18.725.749.749,7.864,16.478-3Z" transform="translate(-288.475 -115.375)" fill="#4c5980"/>
    <path id="Path_17" data-name="Path 17" d="M831.547,187.953,829.3,210.424l22.845,3.37,1.685-12.92,1.686-12.92Z" transform="translate(-271.438 -61.529)" fill="#ffb9b9"/>
    <path id="Path_18" data-name="Path 18" d="M831.547,187.953,829.3,210.424l22.845,3.37,1.685-12.92,1.686-12.92Z" transform="translate(-271.438 -61.529)" opacity="0.1"/>
    <path id="Path_19" data-name="Path 19" d="M860.875,459.894l12.733,27.338s2.247,12.733,5.617,13.107,6.741-13.107,6.741-13.107l-4.494-7.115-5.243-20.223Z" transform="translate(-350.387 -226.55)" fill="#ffb9b9"/>
    <path id="Path_20" data-name="Path 20" d="M891.035,492.082,880.549,508.56s-10.111,156.915-8.613,155.791,6.367-1.5,8.239-4.494,13.482,0,13.482,0l6.741-7.115v-5.617c0-1.124,13.482-86.884,13.482-86.884v21.721s-4.12,79.768,2.621,79.02,20.6-5.243,20.6-5.243,19.848-149.051,13.856-154.668-8.614-18.35-8.614-18.35Z" transform="translate(-353.958 -234.021)" fill="#000e3a"/>
    <circle id="Ellipse_4" data-name="Ellipse 4" cx="17.976" cy="17.976" r="17.976" transform="translate(554.679 97.775)" fill="#ffb9b9"/>
    <path id="Path_21" data-name="Path 21" d="M879.838,338.914l-2.621-1.5s-11.61,7.864-15.355,25.466-6.367,22.1-6.367,22.1-3.745.749-1.123,3.371,2.621,2.247.374,3.745-3.745-1.5-2.247,1.5,3.37,2.247,1.872,4.12-4.119,1.872-2.622,3.37-1.5,4.868.375,6.366,2.622,1.872,2.622,4.494a13.26,13.26,0,0,0,.749,4.494h19.474s-3.745-7.116-2.621-8.613,1.5-3,.749-3.745-3,.749-.749-1.124,3-.749,2.247-3-2.247-1.123-.749-2.247,2.621-.749,1.873-1.872-2.247-1.123-.749-1.872,2.622,0,2.247-1.872-.749-1.124,0-1.873,8.613-26.215,8.613-26.964S879.838,338.914,879.838,338.914Z" transform="translate(-347.254 -186.462)" fill="#d0cde1"/>
    <path id="Path_22" data-name="Path 22" d="M774.675,339.659l-23.594,1.5,5.992,5.618,16.478.375Z" transform="translate(-245.836 -111.184)" fill="#4c5980"/>
    <path id="Path_23" data-name="Path 23" d="M895.807,494.411l-4.869,8.988s14.605,1.873,19.848,3.745,18.725,4.494,18.725,4.494l3.37-13.107Z" transform="translate(-360.227 -237.848)" fill="#4c5980"/>
    <path id="Path_24" data-name="Path 24" d="M859.641,386.262l4.12,12.359,16.478-3.371-1.873-11.609Z" transform="translate(-281.369 -125.579)" fill="#4c5980"/>
    <path id="Path_25" data-name="Path 25" d="M944.876,316.295s-1.123-.749-3.745.749-11.235,2.247-15.354-2.247-7.115-8.239-8.239-7.491-1.873,9.363-1.873,9.363l-3.745,3-22.1,7.865,1.873,50.557,3.37,11.609s-2.621,8.988.749,14.231-1.873,7.115-1.873,7.115-1.124,1.5-.375,5.243-.749,17.6-.749,17.6,31.832,14.231,65.163,1.873l-3.745-14.231L952.366,389.7s1.873-5.243,1.5-7.49S965.1,348.5,965.1,348.5s-1.872-15.729-11.609-19.1-11.235-6.741-11.235-6.741S946.749,317.793,944.876,316.295Z" transform="translate(-359.863 -176.576)" fill="#d0cde1"/>
    <path id="Path_26" data-name="Path 26" d="M925.744,275.452a8.243,8.243,0,0,1-1.149-5.816,17.627,17.627,0,0,0,.5-5.241,51.9,51.9,0,0,1,3.016-7.611c1.508-2.728.79-3.877,5.528-4.739s2.8-7.036,15.293-.359a3.664,3.664,0,0,0,3.805,1.436c2.585-.5,3.518,3.087,3.518,3.087s1.723-1.005,2.369.431,5.253-.862,5.253,8.831-5.243,18.35-5.243,18.35.384-16.3-8.159-17.955-17.734-6.462-19.959-.287a47.068,47.068,0,0,1-4.774,9.872Z" transform="translate(-371.19 -157.398)" fill="#2f2e41"/>
    <ellipse id="Ellipse_5" data-name="Ellipse 5" cx="1.685" cy="2.247" rx="1.685" ry="2.247" transform="translate(585.95 117.436)" fill="#ffb9b9"/>
    <path id="Path_27" data-name="Path 27" d="M953.567,737.951l2.634,7.9s0,7.9,2.634,11.852,5.268,12.51-5.268,13.169-15.144-3.292-15.144-3.292,1.975-5.268,0-7.243,0-5.926,0-5.926l1.975-15.8Z" transform="translate(-375.482 -317.561)" fill="#2f2e41"/>
    <path id="Path_28" data-name="Path 28" d="M881.384,737.951l-2.634,7.9s0,7.9-2.634,11.852-5.268,12.51,5.268,13.169,15.144-3.292,15.144-3.292-1.975-5.268,0-7.243,0-5.926,0-5.926l-1.975-15.8Z" transform="translate(-354.605 -317.561)" fill="#2f2e41"/>
  </g>
</svg>
