<svg xmlns="http://www.w3.org/2000/svg" width="101.333" height="98.799" viewBox="0 0 101.333 98.799"><path d="M83.388.45H17.944A17.929,17.929,0,0,0,0,18.394V81.3A17.929,17.929,0,0,0,17.944,99.249H83.388A17.929,17.929,0,0,0,101.333,81.3V18.394A17.929,17.929,0,0,0,83.388.45Zm13.68,79.208A15.3,15.3,0,0,1,81.784,95.027H19.549A15.353,15.353,0,0,1,4.222,79.7V20A15.353,15.353,0,0,1,19.549,4.672H81.742A15.327,15.327,0,0,1,97.068,20Zm-57-32.975L51.891,69.4c.211.338.084.676-.253.676H44.291a.829.829,0,0,1-.887-.549c-2.7-5.573-5.447-11.147-8.276-17.142h-.084c-2.533,5.658-5.32,11.611-8.022,17.184a.811.811,0,0,1-.76.464H19.3c-.422,0-.464-.338-.253-.591L30.611,47.4,19.422,25.108a.341.341,0,0,1,.253-.591h7.262a.665.665,0,0,1,.76.464c2.66,5.573,5.362,11.315,7.9,16.931h.084c2.449-5.573,5.151-11.358,7.769-16.889.211-.338.338-.549.76-.549H51c.338,0,.464.253.253.591ZM53.96,53.565c0-9.838,6.544-17.522,16.931-17.522a18.724,18.724,0,0,1,2.2.084V24.939a.423.423,0,0,1,.422-.422H80.18c.338,0,.422.127.422.338v38.76a30.073,30.073,0,0,0,.211,4.138c0,.253-.084.338-.338.464a25.15,25.15,0,0,1-10.809,2.449C60.5,70.707,53.96,65.05,53.96,53.565ZM73.086,42.756a6.385,6.385,0,0,0-2.449-.422c-5.32,0-9.036,4.1-9.036,10.893,0,7.769,3.8,10.893,8.571,10.893a7.966,7.966,0,0,0,2.913-.464v-20.9Z" transform="translate(0 -0.45)" fill="#450135"/></svg>